<svg width="95" height="94" viewBox="0 0 95 94" fill="none" xmlns="http://www.w3.org/2000/svg">
<path d="M92.5172 41.2785C92.5172 55.8414 81.7953 64.6106 68.1893 75.2415C62.6787 79.5459 47.142 92 47.142 92C47.142 92 28.8325 78.0501 25.2597 75.2415C12.833 65.4773 3.03299 57.9952 2.04846 41.455C0.813449 20.7549 23.3846 2 46.9054 2C70.4262 2 92.5172 19.5737 92.5172 41.2785Z" fill="#E5291A" stroke="black" stroke-width="3" stroke-miterlimit="10"/>
<path d="M46.8235 66.8327C62.7232 66.8327 75.6124 55.2141 75.6124 40.8819C75.6124 26.5496 62.7232 14.931 46.8235 14.931C30.9238 14.931 18.0345 26.5496 18.0345 40.8819C18.0345 55.2141 30.9238 66.8327 46.8235 66.8327Z" fill="white" stroke="black" stroke-width="6" stroke-miterlimit="10"/>
<path d="M46.9374 17.0729C32.5776 17.0729 20.8944 27.604 20.8944 40.5481C20.8944 53.4923 32.5776 64.0234 46.9374 64.0234C61.2971 64.0234 72.9803 53.4923 72.9803 40.5481C72.9803 27.604 61.2971 17.0729 46.9374 17.0729ZM71.586 36.3121L55.9286 33.9476C53.7156 31.8921 50.6219 30.6143 47.1961 30.6143C46.837 30.6143 46.4855 30.6317 46.1379 30.6595L56.0059 19.4652C63.962 22.2534 69.9601 28.5935 71.5899 36.3156L71.586 36.3121ZM55.384 19.25L45.2419 30.7567C41.623 31.2845 38.5409 33.2462 36.7373 35.9753L30.8242 23.2291C35.1885 19.927 40.808 17.9306 46.9412 17.9306C49.9036 17.9306 52.7462 18.3993 55.3879 19.2534L55.384 19.25ZM30.3182 23.6179L36.3472 36.6107C35.5052 38.1038 35.0263 39.7912 35.0263 41.5828C35.0263 43.4995 35.5747 45.305 36.5326 46.8709L22.2192 44.4265C21.9759 43.1662 21.8445 41.871 21.8445 40.5481C21.8445 33.8156 25.1274 27.7672 30.3221 23.6179H30.3182ZM22.335 45.0238L36.9651 47.5237C39.1318 50.5479 42.9014 52.5514 47.1923 52.5514C47.4588 52.5514 47.7214 52.541 47.984 52.5271L36.1772 60.9818C29.148 57.9645 23.9147 52.0861 22.335 45.0272V45.0238ZM36.8261 61.2422L49.1697 52.4055C53.3293 51.7944 56.7783 49.2841 58.3888 45.8918L62.9385 57.9575C58.5897 61.2074 53.0126 63.1657 46.9374 63.1657C43.3416 63.1657 39.9197 62.4748 36.8261 61.2422ZM63.4561 57.5547L58.7403 45.0515C59.1458 43.9613 59.366 42.7946 59.366 41.5794C59.366 38.9371 58.3309 36.517 56.6045 34.6212L71.7019 36.9024C71.9143 38.0899 72.0302 39.3051 72.0302 40.5447C72.0302 47.3188 68.7048 53.4055 63.4522 57.5547H63.4561Z" fill="black"/>
<path d="M42.4611 38.2683C43.8785 36.2301 46.2886 34.6572 47.679 34.4663C48.5171 34.3517 49.3861 34.2927 49.9036 35.1051C50.2589 35.6676 49.9036 36.4107 48.8067 36.6746C46.8756 37.1364 44.875 38.7926 44.427 39.2301C42.5924 41.0043 40.6111 44.1258 40.6111 44.1258C40.6111 44.1258 41.4299 39.7509 42.4611 38.2717V38.2683Z" fill="white"/>
<path d="M47.2 51.5062C53.3368 51.5062 58.3116 47.0214 58.3116 41.4891C58.3116 35.9568 53.3368 31.4719 47.2 31.4719C41.0632 31.4719 36.0884 35.9568 36.0884 41.4891C36.0884 47.0214 41.0632 51.5062 47.2 51.5062Z" stroke="white" stroke-width="2" stroke-miterlimit="10"/>
</svg>
