<svg width="248" height="24" viewBox="0 0 248 24" fill="none" xmlns="http://www.w3.org/2000/svg">
<path d="M16 7.00005C16 6.44776 16.4477 6.00005 17 6.00005C17.5523 6.00005 18 6.44776 18 7.00005C18 7.55233 17.5523 8.00005 17 8.00005C16.4477 8.00005 16 7.55233 16 7.00005Z" fill="#121212"/>
<path fill-rule="evenodd" clip-rule="evenodd" d="M12 7.25005C9.37665 7.25005 7.25 9.37669 7.25 12C7.25 14.6234 9.37665 16.75 12 16.75C14.6234 16.75 16.75 14.6234 16.75 12C16.75 9.37669 14.6234 7.25005 12 7.25005ZM8.75 12C8.75 10.2051 10.2051 8.75005 12 8.75005C13.7949 8.75005 15.25 10.2051 15.25 12C15.25 13.795 13.7949 15.25 12 15.25C10.2051 15.25 8.75 13.795 8.75 12Z" fill="#121212"/>
<path fill-rule="evenodd" clip-rule="evenodd" d="M17.2583 2.83306C13.7917 2.44562 10.2083 2.44562 6.74177 2.83306C4.72971 3.05794 3.10538 4.64295 2.86883 6.66548C2.45429 10.2098 2.45429 13.7903 2.86883 17.3346C3.10538 19.3571 4.72971 20.9422 6.74177 21.167C10.2083 21.5545 13.7917 21.5545 17.2583 21.167C19.2703 20.9422 20.8946 19.3571 21.1312 17.3346C21.5457 13.7903 21.5457 10.2098 21.1312 6.66548C20.8946 4.64295 19.2703 3.05794 17.2583 2.83306ZM6.90838 4.32378C10.2642 3.94871 13.7358 3.94871 17.0916 4.32378C18.4218 4.47244 19.4872 5.52205 19.6414 6.83973C20.0424 10.2683 20.0424 13.7318 19.6414 17.1604C19.4872 18.478 18.4218 19.5277 17.0916 19.6763C13.7358 20.0514 10.2642 20.0514 6.90838 19.6763C5.57827 19.5277 4.51278 18.478 4.35867 17.1604C3.95767 13.7318 3.95767 10.2683 4.35867 6.83973C4.51278 5.52205 5.57827 4.47244 6.90838 4.32378Z" fill="#121212"/>
<path fill-rule="evenodd" clip-rule="evenodd" d="M68 2.25C62.6152 2.25 58.25 6.61522 58.25 12C58.25 17.3848 62.6152 21.75 68 21.75C73.3848 21.75 77.75 17.3848 77.75 12C77.75 6.61522 73.3848 2.25 68 2.25ZM59.75 12C59.75 7.44365 63.4437 3.75 68 3.75C72.5563 3.75 76.25 7.44365 76.25 12C76.25 16.5563 72.5563 20.25 68 20.25C67.1427 20.25 66.316 20.1192 65.5386 19.8766C65.9612 19.213 66.2973 18.498 66.5387 17.7491L67.0553 15.7719C67.2687 16.0765 67.5548 16.3229 67.8877 16.4888C68.2205 16.6547 68.5895 16.7348 68.9612 16.7219C71.4965 16.7219 73.2778 14.4181 73.2778 11.5563C73.2778 8.80719 71.0334 6.75282 68.1537 6.75282C64.5675 6.75282 62.6615 9.16344 62.6615 11.7819C62.6615 13.005 63.3087 14.5191 64.3478 15.0059C64.5021 15.0772 64.6031 15.0059 64.6268 14.8931C64.6506 14.7804 64.7929 14.211 64.8583 13.9495C64.8685 13.9081 64.8686 13.8643 64.8582 13.8229C64.8479 13.7815 64.8276 13.7433 64.799 13.7116C64.4065 13.1585 64.1987 12.4957 64.2053 11.8175C64.2032 11.3307 64.3 10.8486 64.4896 10.4003C64.6793 9.95195 64.958 9.54679 65.3088 9.2093C65.6596 8.87181 66.0753 8.60902 66.5306 8.43682C66.9859 8.26463 67.4714 8.18662 67.9578 8.20751C68.4133 8.18086 68.8694 8.24946 69.2969 8.40892C69.7245 8.56838 70.1141 8.8152 70.4409 9.13365C70.7677 9.45209 71.0246 9.83516 71.1951 10.2584C71.3656 10.6817 71.446 11.1358 71.4312 11.5919C71.4312 13.8363 70.2912 15.3978 68.8187 15.3978C68.6285 15.4124 68.4375 15.381 68.262 15.3062C68.0865 15.2313 67.9317 15.1153 67.8105 14.9679C67.6893 14.8206 67.6055 14.6462 67.566 14.4595C67.5265 14.2729 67.5326 14.0794 67.5837 13.8956C67.6681 13.5454 67.7795 13.1847 67.888 12.8332C68.0849 12.1955 68.2725 11.5881 68.2725 11.1288C68.293 10.9796 68.2811 10.8277 68.2375 10.6835C68.1939 10.5394 68.1196 10.4064 68.0198 10.2936C67.92 10.1808 67.797 10.0909 67.6592 10.0301C67.5214 9.9693 67.3721 9.93899 67.2215 9.94126C66.3903 9.94126 65.7193 10.8081 65.7193 11.96C65.7131 12.3671 65.7899 12.7711 65.945 13.1475L64.9653 17.3038C64.8453 18.0891 64.845 18.8882 64.9645 19.6736C64.3139 19.4161 63.7039 19.0782 63.1467 18.6722C62.1696 17.9584 61.3532 17.0348 60.7629 15.9593C60.5307 15.5362 60.3371 15.0962 60.183 14.6446C59.9022 13.8144 59.75 12.925 59.75 12Z" fill="#121212"/>
<path fill-rule="evenodd" clip-rule="evenodd" d="M122.488 3.78769C123.472 2.80312 124.808 2.25 126.2 2.25H128.9C129.314 2.25 129.65 2.58579 129.65 3V6.6C129.65 7.01421 129.314 7.35 128.9 7.35H126.2C126.16 7.35 126.122 7.3658 126.094 7.39393C126.066 7.42206 126.05 7.46022 126.05 7.5V9.45H128.9C129.131 9.45 129.349 9.5564 129.491 9.73844C129.633 9.92048 129.684 10.1578 129.628 10.3819L128.728 13.9819C128.644 14.3158 128.344 14.55 128 14.55H126.05V21C126.05 21.4142 125.714 21.75 125.3 21.75H121.7C121.286 21.75 120.95 21.4142 120.95 21V14.55H119C118.586 14.55 118.25 14.2142 118.25 13.8V10.2C118.25 9.78579 118.586 9.45 119 9.45H120.95V7.5C120.95 6.10761 121.503 4.77226 122.488 3.78769ZM126.2 3.75C125.205 3.75 124.252 4.14509 123.548 4.84835C122.845 5.55161 122.45 6.50544 122.45 7.5V10.2C122.45 10.6142 122.114 10.95 121.7 10.95H119.75V13.05H121.7C122.114 13.05 122.45 13.3858 122.45 13.8V20.25H124.55V13.8C124.55 13.3858 124.886 13.05 125.3 13.05H127.414L127.939 10.95H125.3C124.886 10.95 124.55 10.6142 124.55 10.2V7.5C124.55 7.06239 124.724 6.64271 125.033 6.33327C125.343 6.02384 125.762 5.85 126.2 5.85H128.15V3.75H126.2Z" fill="#121212"/>
<path fill-rule="evenodd" clip-rule="evenodd" d="M183.021 3.34365C183.53 3.25656 184.099 3.22749 184.635 3.31813C185.592 3.48001 186.476 3.92474 187.174 4.5915C187.631 4.60183 188.08 4.51186 188.477 4.38359C188.813 4.27504 189.097 4.14397 189.296 4.04033C189.395 3.9888 189.471 3.94484 189.521 3.91509C189.546 3.90023 189.564 3.88898 189.574 3.88219L189.584 3.87613C189.881 3.6784 190.276 3.71689 190.529 3.96839C190.782 4.21996 190.823 4.61488 190.626 4.91278C190.419 5.22807 190.13 5.79015 189.807 6.4199C189.756 6.51892 189.705 6.61962 189.652 6.72129C189.467 7.08125 189.277 7.44507 189.1 7.7572C188.989 7.95318 188.87 8.15216 188.75 8.3241V8.59788C188.758 9.6035 188.642 10.6039 188.408 11.5771C188.261 12.1894 188.067 12.791 187.826 13.3764C187.204 14.8931 186.286 16.2705 185.125 17.4283C183.964 18.586 182.584 19.5009 181.066 20.1194C179.549 20.7374 177.924 21.0472 176.287 21.0308C173.912 21.0328 171.588 20.3488 169.593 19.0608C169.299 18.8711 169.176 18.5036 169.295 18.1748C169.414 17.8461 169.745 17.6435 170.092 17.6864C170.392 17.7236 170.695 17.7418 170.998 17.7408C172.085 17.7377 173.152 17.4975 174.126 17.0448C173.816 16.9039 173.521 16.7301 173.244 16.5254C172.433 15.9235 171.829 15.0835 171.517 14.1224C171.436 13.8726 171.491 13.5986 171.663 13.4001C171.666 13.3965 171.669 13.393 171.672 13.3895C171.489 13.2258 171.317 13.0477 171.159 12.856C170.447 11.9938 170.056 10.9124 170.05 9.79465L170.05 9.79077L170.05 9.74077C170.05 9.47491 170.191 9.22891 170.42 9.09419C170.478 9.06004 170.54 9.03433 170.603 9.01709C170.265 8.34201 170.089 7.59656 170.09 6.84031C170.09 5.98354 170.313 5.14157 170.739 4.39807C170.862 4.18343 171.083 4.0432 171.329 4.02322C171.576 4.00324 171.816 4.1061 171.972 4.29814C172.935 5.48416 174.136 6.45441 175.498 7.14588C176.198 7.50134 176.933 7.77903 177.689 7.97547C178.112 8.0856 178.543 8.17018 178.978 8.22861C178.958 7.50535 179.101 6.78248 179.401 6.11455C179.841 5.13473 180.593 4.32855 181.54 3.82246C181.942 3.60813 182.474 3.43742 183.021 3.34365ZM171.743 10.8911C171.873 11.256 172.066 11.5983 172.316 11.9014C172.807 12.497 173.489 12.9045 174.246 13.0552C174.584 13.1223 174.832 13.4102 174.849 13.7536C174.866 14.0971 174.647 14.4082 174.318 14.5083C174.046 14.5912 173.767 14.649 173.484 14.6811C173.671 14.9216 173.89 15.137 174.138 15.3205C174.699 15.7366 175.376 15.9675 176.074 15.9809C176.391 15.987 176.67 16.1917 176.771 16.4922C176.872 16.7927 176.773 17.1242 176.524 17.3202C175.475 18.1457 174.261 18.7214 172.976 19.0153C174.041 19.3565 175.159 19.5321 176.289 19.5308L176.298 19.5308C177.738 19.5457 179.166 19.2736 180.5 18.7303C181.834 18.1869 183.046 17.3833 184.066 16.3663C185.085 15.3492 185.892 14.1392 186.439 12.8069C186.65 12.2927 186.82 11.7642 186.95 11.2263C187.156 10.3706 187.257 9.4909 187.25 8.60663L187.25 8.60077V8.07077C187.25 7.88892 187.316 7.71326 187.436 7.57649C187.505 7.49744 187.626 7.31489 187.795 7.01699C187.956 6.73386 188.134 6.39395 188.319 6.03477C188.33 6.01305 188.341 5.99121 188.352 5.96928C187.873 6.07342 187.329 6.12801 186.759 6.06643C186.579 6.04692 186.412 5.96264 186.289 5.8292C185.786 5.28386 185.116 4.92085 184.385 4.79711C184.06 4.74221 183.668 4.75478 183.275 4.82211C182.848 4.89527 182.476 5.02329 182.247 5.14546C181.593 5.49503 181.073 6.05188 180.77 6.72866C180.466 7.40545 180.395 8.16389 180.569 8.88505C180.625 9.11496 180.568 9.35754 180.417 9.53957C180.266 9.7216 180.038 9.82176 179.802 9.80981C178.959 9.76715 178.124 9.6385 177.311 9.42723C176.451 9.20374 175.616 8.8878 174.819 8.48338C173.646 7.88797 172.578 7.11088 171.653 6.18319C171.611 6.3988 171.59 6.61883 171.59 6.84027L171.59 6.84219C171.589 7.39291 171.724 7.93534 171.983 8.42119C172.243 8.90704 172.618 9.32123 173.076 9.62689C173.354 9.81239 173.476 10.1595 173.375 10.478C173.274 10.7965 172.974 11.0096 172.64 11.0005C172.337 10.9923 172.037 10.9555 171.743 10.8911Z" fill="#121212"/>
<path fill-rule="evenodd" clip-rule="evenodd" d="M229.788 14.0196C229.831 14.0344 229.876 14.0448 229.92 14.0512C229.968 14.1644 230.03 14.3107 230.103 14.4818C230.28 14.8994 230.518 15.4643 230.765 16.0535C231.267 17.2552 231.773 18.4939 231.885 18.8485C232.024 19.2868 232.17 19.5848 232.33 19.7883C232.413 19.8935 232.508 19.9853 232.62 20.0549C232.676 20.0899 232.736 20.1186 232.798 20.14C232.801 20.141 232.803 20.1419 232.806 20.1428C233.126 20.2636 233.418 20.2133 233.601 20.1518C233.698 20.1188 233.777 20.0791 233.833 20.0469C233.862 20.0304 233.886 20.0151 233.905 20.0021L233.91 19.9991L236.736 18.2366L240.001 20.7394C240.049 20.7763 240.101 20.8073 240.157 20.8316C240.549 21.0027 240.929 21.0624 241.286 21.0136C241.643 20.9649 241.926 20.8151 242.137 20.6464C242.343 20.4813 242.483 20.2963 242.57 20.1589C242.615 20.0887 242.648 20.0266 242.672 19.9791C242.684 19.9552 242.693 19.9346 242.701 19.9181L242.71 19.8963L242.714 19.8877L242.715 19.8841L242.716 19.8824L242.716 19.8808C242.733 19.8379 242.747 19.7935 242.756 19.7482L245.736 4.72274C245.745 4.67469 245.75 4.62581 245.75 4.57682C245.75 4.13681 245.584 3.71841 245.195 3.46452C244.861 3.24752 244.49 3.23818 244.256 3.25598C244.003 3.27519 243.769 3.33766 243.612 3.38757C243.53 3.41355 243.462 3.43861 243.413 3.45773C243.388 3.46734 243.368 3.47559 243.352 3.48188L243.341 3.48666L226.627 10.0432L226.625 10.044C226.614 10.0479 226.601 10.053 226.585 10.0593C226.552 10.0719 226.509 10.0896 226.458 10.1126C226.359 10.1574 226.221 10.2273 226.079 10.3247C225.851 10.4803 225.329 10.9064 225.417 11.6097C225.487 12.1708 225.871 12.5154 226.106 12.6811C226.234 12.7721 226.356 12.8371 226.445 12.8795C226.487 12.8991 226.572 12.9339 226.61 12.9491L226.619 12.9529L229.788 14.0196ZM243.926 4.86786L243.924 4.86888C243.915 4.8725 243.907 4.87596 243.898 4.87928L227.164 11.4438C227.156 11.4472 227.147 11.4505 227.138 11.4536L227.129 11.4571C227.118 11.4613 227.1 11.4686 227.077 11.4788C227.065 11.4846 227.051 11.491 227.038 11.4978C227.056 11.5084 227.074 11.5175 227.09 11.5251C227.105 11.5324 227.117 11.5374 227.124 11.54L230.266 12.598C230.324 12.6174 230.377 12.643 230.427 12.674L240.803 6.59948L240.813 6.59374C240.821 6.58927 240.831 6.58353 240.842 6.5768C240.866 6.56345 240.898 6.54568 240.937 6.52603C241.009 6.48938 241.124 6.43497 241.254 6.39485C241.345 6.36692 241.611 6.28823 241.899 6.38064C242.077 6.43767 242.261 6.56028 242.381 6.76798C242.44 6.87117 242.472 6.97483 242.487 7.06972C242.528 7.2192 242.522 7.36681 242.49 7.49424C242.421 7.76875 242.228 7.98287 242.053 8.14665C241.902 8.28706 239.957 10.1629 238.038 12.0147C237.081 12.9381 236.133 13.8525 235.425 14.5359L234.96 14.9849L240.832 19.4867C240.967 19.5349 241.046 19.5325 241.083 19.5274C241.127 19.5214 241.163 19.5045 241.2 19.4752C241.241 19.4424 241.277 19.398 241.303 19.3557L241.305 19.354L244.195 4.78102C244.152 4.79133 244.109 4.80361 244.067 4.81691C244.02 4.83198 243.981 4.84634 243.955 4.85637C243.942 4.86134 243.933 4.86511 243.928 4.86719L243.926 4.86786ZM235.465 17.2618L234.293 16.3636L234.009 18.1693L235.465 17.2618ZM233.219 14.5814L234.383 13.4567C235.092 12.7732 236.039 11.8588 236.996 10.9352L237.969 9.997L231.449 13.8138L231.484 13.8963C231.661 14.3154 231.901 14.8827 232.149 15.4751C232.334 15.918 232.527 16.3844 232.704 16.8162L232.987 15.0158C233.014 14.8422 233.099 14.692 233.219 14.5814Z" fill="#121212"/>
</svg>
